<svg id="Camada_1" data-name="Camada 1" xmlns="http://www.w3.org/2000/svg" viewBox="0 0 612.52 639.04"><defs><style>.cls-1{opacity:0.28;}.cls-2{fill:#b4b4b4;}.cls-3{font-size:14px;font-family:Roboto-Bold, Roboto;font-weight:700;}.cls-3,.cls-6{fill:#9575cd;}.cls-4{letter-spacing:-0.02em;}.cls-5{letter-spacing:-0.01em;}.cls-7{letter-spacing:-0.03em;}.cls-8{letter-spacing:0.01em;}.cls-9{letter-spacing:-0.01em;}.cls-10{letter-spacing:-0.1em;}.cls-11{letter-spacing:-0.04em;}</style></defs><g class="cls-1"><path class="cls-2" d="M229.46,61.71c2.61,0,5.52.55,5.88,1.38a95.33,95.33,0,0,1,5.8,21c.52,3-1.47,6.4-1.79,9.67-1,10.78,3,16.52,11.07,16.52a25.58,25.58,0,0,0,7.71-1.38c5.62-1.82,11.55-2.65,17.17-4.43,3.43-1.09,6.55-3.15,9.81-4.77-.21-1.2-.41-2.39-.62-3.58,9.8.81,19.62,1.44,29.39,2.49a25.44,25.44,0,0,0,2.83.16c5,0,8.9-1.78,12-7,4-6.78,9.14-12.86,14.95-20.84,1.65,4.08,2.72,6.88,3.91,9.63,3,6.9,6.19,13.71,9,20.68s5.13,13.93,7.68,20.9l-3.62,3.61c16.36,5.58,32.63,11.44,49.1,16.64,9.78,3.09,18.87,6.43,21.31,16,8.75,2.17,16.26,4.21,23.86,5.84,5,1.08,10.29,2.72,15.33,2.72.71,0,1.42,0,2.13-.1a40.51,40.51,0,0,1,4.2-.22c11.81,0,21.11,5.34,29.63,13.41s16.63,16.5,29.25,16.5a28.24,28.24,0,0,0,3.13-.17h.15c1.52,0,3.72,2.15,4.76,3.78,11.1,17.46,10.93,39.25-1.38,55.77-13,17.39-27,34-40,51.33a17.07,17.07,0,0,0-2.87,11.84c4.1,24.06-3.25,46.77-10.3,68.66-5.18,16.08-16.74,30.16-26,44.82-1.25,2-5.17,3.27-7.94,3.27h-.3c-.76,0-1.53,0-2.29,0-19.09,0-35.88,8.36-52,16.64-14.05,7.22-23.81,19.06-20.44,38,1.09,6.16-4.14,13.94-7.67,20.31-4.1,7.42-9.54,14.1-14.34,21.14-.93,1.35-1.39,3.07-2.45,4.28C344.72,548.58,334,560.9,323,573.08c-1.45,1.61-3.85,2.36-7.09,4.25-.88-3.53-2.6-6.49-1.77-7.7,7.47-10.8-2-15.29-8.11-19-13.84-8.5-28.58-15.53-43.94-23.69,14.61-11.51,24.26-29.35,43.22-37.2,2.62-1.08,5.09-5.58,5.27-8.63s-2.68-6.13-4.21-9.2c-1.4-2.83-3.72-5.58-4-8.5-.36-4.11.84-8.34,1.56-14a24.1,24.1,0,0,1-5.43.72c-9.14,0-9.43-8-10.41-15.89-.3-2.44-3.67-5.73-6.23-6.41-7.28-2-14.88-2.77-24.56-4.4,1.49-15.06,2.79-29.9,4.52-44.7.76-6.5,2.92-12.42-4.08-17.74-3.36-2.55-4.08-8.57-6.25-13.59h0a1.64,1.64,0,0,0-1-.49c-18.34-.9-19-.85-20.28-19.08-.76-10.63-4.11-16.21-15.18-18.92-11.41-2.79-21.86-9.29-33.1-13.08s-15.15-11.69-14.91-22.69c.08-3.22,0-6.45,0-9.57a15.59,15.59,0,0,0-6.25-1.38c-5.59,0-10,3.44-14.09,6.74-6.78,5.5-13.7,9.57-21.9,9.57a27.24,27.24,0,0,1-7.11-1,5.48,5.48,0,0,0-1.47-.18,20.24,20.24,0,0,0-2.47.22,52.19,52.19,0,0,1-6.46.51c-7.18,0-8.11-3.06-6.62-12.17l-26.59-7.44c-4-8-6.38-13.74-9.54-19-4.12-6.82-5.37-13.28-.18-20.07,1.8-2.35,4.18-4.73,4.79-7.43,4.31-19.2,20.5-23,35.7-28.3,2.38-.83,5.69-3,6-5,2.65-15.56,10.28-31.41-1.54-46.63-1.08-1.38-.67-4.28-.28-6.35.91-4.94,2.22-9.81,4-17.28l31-8.12C150.31,111.42,156.93,117,164.2,117c6.81,0,14.18-4.88,22.37-14.62-4.48-9.25-9-18.51-14.08-29,3.41.17,5.57-.06,7.56.43a77.5,77.5,0,0,0,18.23,2.67c10.09,0,19.37-3.36,27.11-13.8.5-.67,2.2-.95,4.07-.95m0-10c-2.08,0-8.39,0-12.1,5-5.07,6.84-10.78,9.76-19.08,9.76-4.27,0-9.15-.73-15.84-2.38a28,28,0,0,0-6.68-.64c-.87,0-1.77,0-2.77-.07h-.5a10,10,0,0,0-9,14.36l5.31,10.94,5.81,12c-5.73,5.65-9.08,6.36-10.41,6.36-3.11,0-7.26-4.26-11.39-11.68a10,10,0,0,0-11.27-4.82l-7.66,2-23.34,6.12a10,10,0,0,0-7.2,7.39c-.54,2.3-1,4.35-1.49,6.23-1.06,4.38-1.9,7.84-2.58,11.51-.51,2.77-1.71,9.25,2.22,14.31,6.19,8,4.77,15.71,1.73,28.7-.57,2.41-1.14,4.87-1.64,7.39l-4,1.36c-14.63,5-32.82,11.14-38.09,33.81-.31.5-1.1,1.47-1.64,2.13s-.94,1.15-1.42,1.79c-7.18,9.37-7.32,19.91-.44,31.31,1.86,3.08,3.49,6.5,5.55,10.83,1.05,2.2,2.24,4.7,3.6,7.44A10,10,0,0,0,71.44,268l10,2.79,8.75,2.45a15.52,15.52,0,0,0,3.54,9.39C98.26,288,105.1,288,107.34,288a64,64,0,0,0,7.71-.58l.27,0,.6-.07a36.78,36.78,0,0,0,8.93,1.12c12.08,0,21.41-6.3,28.2-11.8,1.43-1.16,2.78-2.22,4-3-.13,16.08,7.17,26.72,21.73,31.63a141.32,141.32,0,0,1,13.1,5.45c6.56,3,13.34,6.05,20.81,7.87,5.76,1.42,7,2.43,7.58,9.91.69,9.73,1.24,17.41,6.9,22.65,4.27,3.95,9.39,4.9,17,5.4,1.35,4.17,3.19,9,7.58,12.37,1.3,1,1.3,1,.61,5.59-.14,1-.29,2-.41,3-1.24,10.6-2.28,21.4-3.28,31.85-.42,4.32-.83,8.65-1.26,13a10,10,0,0,0,8.28,10.85c2.95.49,5.65.91,8.27,1.31,5.41.83,10.13,1.55,14.48,2.65.49,4.2,1.08,8.91,3.26,13.1a17.43,17.43,0,0,0,10.77,8.95,30.89,30.89,0,0,0,0,5c.37,4.34,2.41,7.73,3.9,10.21.43.71.83,1.37,1.08,1.88a41.68,41.68,0,0,0,2.13,3.69l.63,1c-13.29,5.89-22.47,15.83-30.6,24.62-4.58,5-8.91,9.66-13.67,13.41a10,10,0,0,0,1.5,16.68c4.55,2.42,9.07,4.75,13.44,7,10.54,5.44,20.49,10.57,30,16.39l1.45.87a39.33,39.33,0,0,1,4.34,2.88,11.81,11.81,0,0,1-.68,1.09c-3.44,5-1.61,10.17-.52,13.27.32.9.63,1.76.82,2.54A10,10,0,0,0,321,586c.87-.5,1.69-.92,2.55-1.36a21.78,21.78,0,0,0,6.93-4.84c11.18-12.45,22.21-25.09,32.55-37a20,20,0,0,0,2.89-4.63c.1-.23.25-.52.32-.66,1.45-2.13,3-4.22,4.56-6.42A150.17,150.17,0,0,0,381,515.65c.48-.86,1-1.76,1.52-2.67,3.93-6.85,8.81-15.37,7.24-24.23-1.36-7.7-1.28-18.92,15.17-27.38,14.16-7.28,30.21-15.54,47.42-15.54.64,0,1.3,0,1.94,0h.65c4.24,0,12.46-1.67,16.41-7.94,2.31-3.69,4.77-7.31,7.36-11.15,7.57-11.16,15.39-22.7,19.65-35.93l.08-.25c7.4-23,15.06-46.77,10.56-73.16a7.44,7.44,0,0,1,1-4.14c6.13-8.13,12.62-16.29,18.9-24.17,7-8.83,14.28-17.95,21.18-27.21,14.58-19.56,15.28-45.9,1.79-67.1-.89-1.41-5.73-8.42-13.19-8.42-.4,0-.81,0-1.21.06-.7.07-1.4.11-2.07.11-7.53,0-12.86-4.71-20.94-12.4L513,172.81c-11.63-11-23.23-16.14-36.5-16.14a51.28,51.28,0,0,0-5.22.27c-.34,0-.72.05-1.11.05a43.5,43.5,0,0,1-9.27-1.59c-1.29-.3-2.62-.62-4-.91-5.06-1.08-10.21-2.39-15.67-3.78l-2.88-.73c-5.69-10.75-17.49-14.47-25.69-17.06-11.47-3.63-23.09-7.66-34.33-11.55l-4.46-1.55a8.41,8.41,0,0,0-.32-1c-.77-2.1-1.52-4.21-2.27-6.32-1.73-4.87-3.53-9.91-5.52-14.87-1.88-4.69-3.94-9.29-5.92-13.73-1.06-2.37-2.15-4.81-3.18-7.2C356,75,355.28,73.22,354.4,71l-1.52-3.78a10,10,0,0,0-8.05-6.17,8.42,8.42,0,0,0-1.22-.08,10,10,0,0,0-8.08,4.11c-1.79,2.45-3.52,4.74-5.2,7A146,146,0,0,0,320,86.78c-1.15,2-1.64,2-3.32,2a16.67,16.67,0,0,1-1.76-.1c-7-.75-14.08-1.3-20.92-1.83q-4.36-.33-8.71-.69c-.28,0-.55,0-.83,0a10,10,0,0,0-9.74,7.76,17.3,17.3,0,0,1-2.47,1c-2.38.76-4.95,1.34-7.67,2-3.09.71-6.28,1.44-9.55,2.49a15.61,15.61,0,0,1-4.64.9,4.22,4.22,0,0,1-.77-.06c-.22-.53-.67-2.11-.34-5.49a18.5,18.5,0,0,1,.55-2.09A21.59,21.59,0,0,0,251,82.43a102.72,102.72,0,0,0-6.45-23.25c-2.63-6.17-9.65-7.47-15.08-7.47Z"/></g><text class="cls-3" transform="translate(289.93 569.5)">PO<tspan class="cls-4" x="18.7" y="0">R</tspan><tspan class="cls-5" x="27.29" y="0">T</tspan><tspan x="35.76" y="0">O ALEGRE</tspan></text><path class="cls-6" d="M336.74,557.41c-5.11-6-9.68-12.11-12.14-19.5-2.15-6.47-.5-12.29,4.46-16a13.17,13.17,0,0,1,15.59-.18c5,3.51,6.78,9.48,4.79,15.91C347.7,543.25,341.26,553.4,336.74,557.41Zm-.17-19.67c3.12,0,5.38-2.14,5.36-4.89,0-3.11-1.8-4.8-4.77-5.1a4.9,4.9,0,0,0-5.2,5.07A4.85,4.85,0,0,0,336.57,537.74Z"/><path class="cls-6" d="M382,497.15c-5.12-6-9.68-12.1-12.14-19.49-2.16-6.48-.51-12.3,4.46-16a13.17,13.17,0,0,1,15.59-.18c5,3.51,6.78,9.48,4.78,15.91C393,483,386.54,493.14,382,497.15Zm-.17-19.66c3.12,0,5.37-2.15,5.35-4.9,0-3.1-1.8-4.8-4.76-5.09a5,5,0,0,0-.59,10Z"/><path class="cls-6" d="M348.32,437.81c-5.12-6-9.68-12.1-12.14-19.49-2.16-6.47-.51-12.3,4.45-16a13.19,13.19,0,0,1,15.6-.18c5,3.5,6.77,9.48,4.78,15.9C359.27,423.66,352.84,433.81,348.32,437.81Zm-.17-19.66c3.12,0,5.37-2.14,5.35-4.9,0-3.1-1.8-4.8-4.77-5.09a4.9,4.9,0,0,0-5.19,5.07A4.85,4.85,0,0,0,348.15,418.15Z"/><path class="cls-6" d="M405.49,423.52c-5.12-6-9.68-12.11-12.14-19.5-2.16-6.47-.51-12.29,4.46-16a13.17,13.17,0,0,1,15.59-.18c5,3.51,6.77,9.48,4.78,15.91C416.45,409.36,410,419.51,405.49,423.52Zm-.17-19.67c3.12,0,5.37-2.14,5.35-4.89,0-3.11-1.8-4.81-4.76-5.1a4.9,4.9,0,0,0-5.2,5.07A4.84,4.84,0,0,0,405.32,403.85Z"/><path class="cls-6" d="M457.51,418.74c-5.12-6-9.69-12.1-12.15-19.49-2.15-6.47-.5-12.3,4.46-16a13.19,13.19,0,0,1,15.59-.18c5,3.51,6.78,9.49,4.79,15.91C468.46,404.58,462,414.74,457.51,418.74Zm-.18-19.66c3.12,0,5.38-2.14,5.36-4.9,0-3.1-1.8-4.8-4.77-5.09a5,5,0,0,0-.59,10Z"/><path class="cls-6" d="M364.14,362.08c-5.12-6-9.69-12.11-12.15-19.5-2.15-6.47-.5-12.29,4.46-16A13.17,13.17,0,0,1,372,326.4c5,3.51,6.78,9.48,4.79,15.91C375.09,347.92,368.65,358.07,364.14,362.08ZM364,342.41c3.12,0,5.38-2.14,5.36-4.89,0-3.11-1.8-4.8-4.77-5.1a4.91,4.91,0,0,0-5.2,5.08A4.85,4.85,0,0,0,364,342.41Z"/><path class="cls-6" d="M330,295.35c-5.12-6-9.69-12.1-12.15-19.49-2.15-6.47-.5-12.29,4.46-16a13.19,13.19,0,0,1,15.6-.18c5,3.5,6.77,9.48,4.78,15.9C341,281.2,334.53,291.35,330,295.35Zm-.18-19.66c3.12,0,5.38-2.14,5.36-4.9,0-3.1-1.8-4.8-4.77-5.09a4.91,4.91,0,0,0-5.2,5.07A4.86,4.86,0,0,0,329.83,275.69Z"/><path class="cls-6" d="M416.13,326.33c-5.12-6-9.68-12.1-12.14-19.49-2.16-6.47-.51-12.3,4.46-16a13.17,13.17,0,0,1,15.59-.19c5,3.51,6.77,9.49,4.78,15.91C427.09,312.18,420.65,322.33,416.13,326.33ZM416,306.67c3.12,0,5.37-2.14,5.35-4.9,0-3.1-1.8-4.8-4.76-5.09a4.9,4.9,0,0,0-5.2,5.07A4.85,4.85,0,0,0,416,306.67Z"/><path class="cls-6" d="M486.09,308.83c-5.12-6-9.69-12.11-12.15-19.5-2.15-6.47-.5-12.29,4.46-16a13.19,13.19,0,0,1,15.6-.18c5,3.51,6.77,9.48,4.78,15.91C497,294.67,490.61,304.82,486.09,308.83Zm-.18-19.67c3.12,0,5.38-2.14,5.36-4.89,0-3.11-1.8-4.8-4.77-5.1a4.92,4.92,0,0,0-5.2,5.07A4.86,4.86,0,0,0,485.91,289.16Z"/><path class="cls-6" d="M530.49,261.17c-5.11-6-9.68-12.11-12.14-19.5-2.15-6.47-.5-12.29,4.46-16a13.17,13.17,0,0,1,15.59-.18c5,3.51,6.78,9.48,4.79,15.91C541.45,247,535,257.16,530.49,261.17Zm-.17-19.67c3.12,0,5.38-2.14,5.36-4.89,0-3.11-1.8-4.8-4.77-5.1a4.91,4.91,0,0,0-5.2,5.07A4.85,4.85,0,0,0,530.32,241.5Z"/><text class="cls-3" transform="translate(333.39 510.5)">F<tspan class="cls-7" x="7.67" y="0">L</tspan><tspan x="14.81" y="0">OR</tspan><tspan class="cls-8" x="33.41" y="0">I</tspan><tspan x="37.62" y="0">ANÓPOLIS</tspan></text><text class="cls-3" transform="translate(318.43 451.5)">CUR<tspan class="cls-9" x="27.31" y="0">I</tspan><tspan x="31.19" y="0">TIBA</tspan></text><text class="cls-3" transform="translate(396.88 437.81)">SP</text><text class="cls-3" transform="translate(328.35 377.5)">CAMPI<tspan class="cls-8" x="43.95" y="0">N</tspan><tspan x="53.96" y="0">AS</tspan></text><text class="cls-3" transform="translate(406.93 343.01)">BH</text><text class="cls-3" transform="translate(451.32 324.38)">SA<tspan class="cls-10" x="18.03" y="0">L</tspan><tspan class="cls-11" x="24.2" y="0">V</tspan><tspan x="32.84" y="0">ADOR</tspan></text><text class="cls-3" transform="translate(507.91 274.1)">RECIFE</text><text class="cls-3" transform="translate(299.63 311.35)">BRASÍL<tspan class="cls-8" x="47.56" y="0">I</tspan><tspan x="51.76" y="0">A</tspan></text><text class="cls-3" transform="translate(449.34 432.87)">RJ</text></svg>